<svg width="20" height="16" viewBox="0 0 20 16" fill="none" xmlns="http://www.w3.org/2000/svg">
<path fill-rule="evenodd" clip-rule="evenodd" d="M10.577 4.07354C10.2546 4.38297 9.74545 4.38297 9.42301 4.07354L8.84601 3.51983C8.17065 2.87172 7.25829 2.47599 6.25001 2.47599C4.17894 2.47599 2.50001 4.15492 2.50001 6.22599C2.50001 8.21152 3.57483 9.85104 5.12647 11.1981C6.67944 12.5464 8.53618 13.4405 9.64555 13.8969C9.87751 13.9923 10.1225 13.9923 10.3545 13.8969C11.4638 13.4405 13.3206 12.5464 14.8735 11.1981C16.4252 9.85103 17.5 8.21151 17.5 6.22599C17.5 4.15492 15.8211 2.47599 13.75 2.47599C12.7417 2.47599 11.8294 2.87172 11.154 3.51983L10.577 4.07354ZM10 2.3173C9.02676 1.38333 7.70542 0.809326 6.25001 0.809326C3.25847 0.809326 0.833344 3.23445 0.833344 6.22599C0.833344 11.5329 6.64196 14.4635 9.0115 15.4382C9.64965 15.7007 10.3504 15.7007 10.9885 15.4382C13.3581 14.4635 19.1667 11.5329 19.1667 6.22599C19.1667 3.23445 16.7416 0.809326 13.75 0.809326C12.2946 0.809326 10.9733 1.38333 10 2.3173Z" fill="#6C7275"/>
</svg>
