<svg width="25" height="25" viewBox="0 0 25 25" fill="none" xmlns="http://www.w3.org/2000/svg">
<path fill-rule="evenodd" clip-rule="evenodd" d="M4.35002 12.3093C4.35002 7.8082 7.9989 4.15932 12.5 4.15932C17.0011 4.15932 20.65 7.8082 20.65 12.3093C20.65 16.8104 17.0011 20.4593 12.5 20.4593C7.9989 20.4593 4.35002 16.8104 4.35002 12.3093ZM12.5 2.45932C7.06002 2.45932 2.65002 6.86932 2.65002 12.3093C2.65002 17.7493 7.06002 22.1593 12.5 22.1593C17.94 22.1593 22.35 17.7493 22.35 12.3093C22.35 6.86932 17.94 2.45932 12.5 2.45932ZM11.65 12.3093C11.65 12.7788 12.0306 13.1593 12.5 13.1593C12.9695 13.1593 13.35 12.7788 13.35 12.3093V8.30933C13.35 7.83989 12.9695 7.45933 12.5 7.45933C12.0306 7.45933 11.65 7.83989 11.65 8.30933V12.3093ZM12.5 14.6593C11.8649 14.6593 11.35 15.1742 11.35 15.8093C11.35 16.4445 11.8649 16.9593 12.5 16.9593C13.1352 16.9593 13.65 16.4445 13.65 15.8093C13.65 15.1742 13.1352 14.6593 12.5 14.6593Z" fill="#F9F9F9"/>
</svg>
