<svg width="40" height="39" viewBox="0 0 40 39" fill="none" xmlns="http://www.w3.org/2000/svg">
<path d="M20.0483 13.5343C18.4727 13.5343 16.9616 14.1428 15.8475 15.2258C14.7333 16.3088 14.1074 17.7777 14.1074 19.3093C14.1074 20.841 14.7333 22.3098 15.8475 23.3929C16.9616 24.4759 18.4727 25.0843 20.0483 25.0843C21.6239 25.0843 23.135 24.4759 24.2491 23.3929C25.3633 22.3098 25.9892 20.841 25.9892 19.3093C25.9892 17.7777 25.3633 16.3088 24.2491 15.2258C23.135 14.1428 21.6239 13.5343 20.0483 13.5343ZM20.0483 9.68433C22.6743 9.68433 25.1928 10.6984 27.0497 12.5034C28.9066 14.3085 29.9497 16.7566 29.9497 19.3093C29.9497 21.862 28.9066 24.3102 27.0497 26.1152C25.1928 27.9203 22.6743 28.9343 20.0483 28.9343C17.4223 28.9343 14.9038 27.9203 13.0469 26.1152C11.19 24.3102 10.1468 21.862 10.1468 19.3093C10.1468 16.7566 11.19 14.3085 13.0469 12.5034C14.9038 10.6984 17.4223 9.68433 20.0483 9.68433ZM32.9202 9.20308C32.9202 9.84125 32.6594 10.4533 32.1952 10.9046C31.7309 11.3558 31.1013 11.6093 30.4448 11.6093C29.7883 11.6093 29.1587 11.3558 28.6945 10.9046C28.2302 10.4533 27.9695 9.84125 27.9695 9.20308C27.9695 8.5649 28.2302 7.95286 28.6945 7.5016C29.1587 7.05034 29.7883 6.79683 30.4448 6.79683C31.1013 6.79683 31.7309 7.05034 32.1952 7.5016C32.6594 7.95286 32.9202 8.5649 32.9202 9.20308ZM20.0483 3.90933C15.1491 3.90933 14.349 3.9228 12.0697 4.02098C10.5172 4.0922 9.47553 4.29433 8.50914 4.66008C7.6497 4.98348 7.02987 5.3704 6.37043 6.01335C5.75061 6.59547 5.27405 7.30615 4.97631 8.09235C4.60005 9.0356 4.39212 10.0462 4.32083 11.5535C4.21786 13.6787 4.20598 14.4218 4.20598 19.3093C4.20598 24.0718 4.21984 24.8495 4.32083 27.0651C4.3941 28.5724 4.60203 29.5869 4.97631 30.5244C5.31296 31.3618 5.70902 31.9643 6.36647 32.6034C7.03383 33.2502 7.65366 33.6371 8.50518 33.9566C9.48345 34.3243 10.5251 34.5284 12.0697 34.5977C14.2559 34.6978 15.0203 34.7093 20.0483 34.7093C24.9475 34.7093 25.7476 34.6959 28.0269 34.5977C29.5755 34.5265 30.6191 34.3243 31.5855 33.9605C32.4429 33.6352 33.0667 33.2483 33.7242 32.6091C34.3915 31.9604 34.7896 31.3579 35.1183 30.5302C35.4946 29.5811 35.7045 28.5666 35.7758 27.0651C35.8787 24.9399 35.8906 24.1969 35.8906 19.3093C35.8906 14.5469 35.8768 13.7692 35.7758 11.5535C35.7025 10.0482 35.4946 9.03175 35.1183 8.09235C34.8199 7.30695 34.3442 6.59655 33.7262 6.01335C33.1276 5.41053 32.3964 4.94722 31.5874 4.65815C30.6171 4.2924 29.5755 4.09028 28.0269 4.02098C25.8406 3.92088 25.0763 3.90933 20.0483 3.90933ZM20.0483 0.0593262C25.4287 0.0593262 26.1001 0.0785761 28.211 0.174826C30.3201 0.271076 31.7558 0.592551 33.0192 1.06995C34.3262 1.5589 35.4272 2.2211 36.5283 3.28948C37.5352 4.25178 38.3144 5.41581 38.8115 6.70058C39.3007 7.9268 39.6334 9.32435 39.7324 11.3745C39.8255 13.4265 39.8512 14.0791 39.8512 19.3093C39.8512 24.5396 39.8314 25.1921 39.7324 27.2442C39.6334 29.2943 39.3007 30.6899 38.8115 31.9181C38.3158 33.2035 37.5365 34.3679 36.5283 35.3292C35.538 36.3077 34.3407 37.065 33.0192 37.5487C31.7577 38.0242 30.3201 38.3476 28.211 38.4438C26.1001 38.5343 25.4287 38.5593 20.0483 38.5593C14.6678 38.5593 13.9965 38.5401 11.8855 38.4438C9.77653 38.3476 8.34082 38.0242 7.07739 37.5487C5.75521 37.0664 4.55753 36.3089 3.56832 35.3292C2.56116 34.367 1.78196 33.203 1.28505 31.9181C0.793936 30.6918 0.463227 29.2943 0.364213 27.2442C0.271139 25.1921 0.245396 24.5396 0.245396 19.3093C0.245396 14.0791 0.265198 13.4265 0.364213 11.3745C0.463227 9.32243 0.793936 7.92873 1.28505 6.70058C1.78059 5.41502 2.55997 4.25067 3.56832 3.28948C4.55782 2.3101 5.75541 1.55261 7.07739 1.06995C8.34082 0.592551 9.77455 0.271076 11.8855 0.174826C13.9965 0.0843511 14.6678 0.0593262 20.0483 0.0593262Z" fill="#38CB89"/>
</svg>
