<svg width="20" height="20" viewBox="0 0 20 20" fill="none" xmlns="http://www.w3.org/2000/svg">
<path fill-rule="evenodd" clip-rule="evenodd" d="M3.20833 8.33341C3.20833 5.50296 5.50287 3.20841 8.33333 3.20841C11.1638 3.20841 13.4583 5.50296 13.4583 8.33341C13.4583 11.1639 11.1638 13.4584 8.33333 13.4584C5.50287 13.4584 3.20833 11.1639 3.20833 8.33341ZM8.33333 1.79175C4.72047 1.79175 1.79167 4.72055 1.79167 8.33341C1.79167 11.9463 4.72047 14.8751 8.33333 14.8751C9.8846 14.8751 11.3097 14.3351 12.4311 13.4329L16.9991 18.001C17.2758 18.2776 17.7242 18.2776 18.0009 18.001C18.2775 17.7243 18.2775 17.2758 18.0009 16.9992L13.4328 12.4312C14.335 11.3098 14.875 9.88468 14.875 8.33341C14.875 4.72055 11.9462 1.79175 8.33333 1.79175Z" fill="#141718"/>
</svg>
