<svg width="16" height="17" viewBox="0 0 16 17" fill="none" xmlns="http://www.w3.org/2000/svg">
<path d="M7.53834 1.41929C7.70914 1.00865 8.29086 1.00864 8.46166 1.41929L9.99874 5.11488C10.0707 5.288 10.2336 5.40629 10.4204 5.42127L14.4102 5.74112C14.8535 5.77666 15.0332 6.32992 14.6955 6.61925L11.6557 9.22311C11.5133 9.34508 11.4512 9.53647 11.4947 9.71885L12.4234 13.6121C12.5265 14.0447 12.0559 14.3867 11.6764 14.1548L8.26063 12.0685C8.10062 11.9708 7.89938 11.9708 7.73937 12.0685L4.32363 14.1548C3.94408 14.3867 3.47345 14.0447 3.57665 13.6121L4.50534 9.71885C4.54884 9.53647 4.48665 9.34508 4.34426 9.22311L1.30453 6.61925C0.966758 6.32992 1.14652 5.77666 1.58985 5.74112L5.57955 5.42127C5.76645 5.40629 5.92925 5.288 6.00126 5.11488L7.53834 1.41929Z" fill="#38CB89"/>
</svg>
