<svg width="32" height="33" viewBox="0 0 32 33" fill="none" xmlns="http://www.w3.org/2000/svg">
<path d="M28.0241 20.2808L27.7788 20.9896L27.7788 20.9896L28.0241 20.2808ZM28.0241 12.7192L28.2695 13.4279L28.2695 13.4279L28.0241 12.7192ZM3.97586 20.2808L4.22123 20.9896L4.22123 20.9896L3.97586 20.2808ZM3.97586 12.7192L3.73048 13.4279L3.73048 13.4279L3.97586 12.7192ZM20.5303 13.0303C20.8232 12.7374 20.8232 12.2626 20.5303 11.9697C20.2374 11.6768 19.7626 11.6768 19.4697 11.9697L20.5303 13.0303ZM11.4697 19.9697C11.1768 20.2626 11.1768 20.7374 11.4697 21.0303C11.7626 21.3232 12.2374 21.3232 12.5303 21.0303L11.4697 19.9697ZM8 27.75C5.46869 27.75 3.41666 25.698 3.41666 23.1667H1.91666C1.91666 26.5264 4.64027 29.25 8 29.25V27.75ZM28.5833 23.1667C28.5833 25.698 26.5313 27.75 24 27.75V29.25C27.3597 29.25 30.0833 26.5264 30.0833 23.1667H28.5833ZM24 5.25C26.5313 5.25 28.5833 7.30203 28.5833 9.83333H30.0833C30.0833 6.4736 27.3597 3.75 24 3.75V5.25ZM8 3.75C4.64027 3.75 1.91666 6.4736 1.91666 9.83333H3.41666C3.41666 7.30203 5.46869 5.25 8 5.25V3.75ZM28.2695 19.5721C26.996 19.1312 26.0833 17.9212 26.0833 16.5H24.5833C24.5833 18.58 25.9199 20.346 27.7788 20.9896L28.2695 19.5721ZM26.0833 16.5C26.0833 15.0788 26.996 13.8688 28.2695 13.4279L27.7788 12.0104C25.9199 12.654 24.5833 14.42 24.5833 16.5H26.0833ZM5.91666 16.5C5.91666 17.9212 5.00396 19.1312 3.73048 19.5721L4.22123 20.9896C6.08012 20.346 7.41666 18.58 7.41666 16.5H5.91666ZM3.73048 13.4279C5.00396 13.8688 5.91666 15.0788 5.91666 16.5H7.41666C7.41666 14.42 6.08012 12.654 4.22123 12.0104L3.73048 13.4279ZM30.0833 11.1667V9.83333H28.5833V11.1667H30.0833ZM28.5833 21.8333V23.1667H30.0833V21.8333H28.5833ZM1.91666 21.8333V23.1667H3.41666V21.8333H1.91666ZM3.41666 11.1667V9.83333H1.91666V11.1667H3.41666ZM24 27.75H8V29.25H24V27.75ZM24 3.75H8V5.25H24V3.75ZM3.73048 19.5721C2.87784 19.8673 1.91666 20.6468 1.91666 21.8333H3.41666C3.41666 21.5471 3.68216 21.1762 4.22123 20.9896L3.73048 19.5721ZM28.2695 13.4279C29.1222 13.1327 30.0833 12.3532 30.0833 11.1667H28.5833C28.5833 11.4529 28.3178 11.8238 27.7788 12.0104L28.2695 13.4279ZM4.22123 12.0104C3.68216 11.8238 3.41666 11.4529 3.41666 11.1667H1.91666C1.91666 12.3532 2.87785 13.1327 3.73048 13.4279L4.22123 12.0104ZM27.7788 20.9896C28.3178 21.1762 28.5833 21.5471 28.5833 21.8333H30.0833C30.0833 20.6468 29.1222 19.8673 28.2695 19.5721L27.7788 20.9896ZM12.5833 12.5C12.5833 12.8222 12.3222 13.0833 12 13.0833V14.5833C13.1506 14.5833 14.0833 13.6506 14.0833 12.5H12.5833ZM12 13.0833C11.6778 13.0833 11.4167 12.8222 11.4167 12.5H9.91666C9.91666 13.6506 10.8494 14.5833 12 14.5833V13.0833ZM11.4167 12.5C11.4167 12.1778 11.6778 11.9167 12 11.9167V10.4167C10.8494 10.4167 9.91666 11.3494 9.91666 12.5H11.4167ZM12 11.9167C12.3222 11.9167 12.5833 12.1778 12.5833 12.5H14.0833C14.0833 11.3494 13.1506 10.4167 12 10.4167V11.9167ZM20.5833 20.5C20.5833 20.8222 20.3222 21.0833 20 21.0833V22.5833C21.1506 22.5833 22.0833 21.6506 22.0833 20.5H20.5833ZM20 21.0833C19.6778 21.0833 19.4167 20.8222 19.4167 20.5H17.9167C17.9167 21.6506 18.8494 22.5833 20 22.5833V21.0833ZM19.4167 20.5C19.4167 20.1778 19.6778 19.9167 20 19.9167V18.4167C18.8494 18.4167 17.9167 19.3494 17.9167 20.5H19.4167ZM20 19.9167C20.3222 19.9167 20.5833 20.1778 20.5833 20.5H22.0833C22.0833 19.3494 21.1506 18.4167 20 18.4167V19.9167ZM19.4697 11.9697L11.4697 19.9697L12.5303 21.0303L20.5303 13.0303L19.4697 11.9697Z" fill="black"/>
</svg>
