<svg width="41" height="33" viewBox="0 0 41 33" fill="none" xmlns="http://www.w3.org/2000/svg">
<path d="M40.2941 4.65664C38.8107 5.2999 37.2377 5.72235 35.627 5.91003C37.3247 4.91462 38.5953 3.34803 39.2021 1.5022C37.6089 2.43177 35.8621 3.08323 34.0415 3.43563C32.8186 2.15286 31.1977 1.30212 29.4307 1.01567C27.6638 0.729225 25.8498 1.02311 24.2708 1.85165C22.6918 2.68019 21.4362 3.99696 20.6993 5.59724C19.9624 7.19753 19.7854 8.99167 20.1958 10.7007C16.9648 10.542 13.804 9.71883 10.9186 8.28475C8.03321 6.85066 5.48768 4.83769 3.4473 2.37653C2.72507 3.59268 2.34554 4.97518 2.34757 6.38244C2.34757 9.14447 3.78149 11.5846 5.96152 13.0132C4.67139 12.9734 3.40966 12.6318 2.28151 12.017V12.116C2.28189 13.9556 2.93118 15.7383 4.11927 17.1621C5.30737 18.5859 6.96115 19.563 8.80022 19.9279C7.60259 20.246 6.34683 20.2929 5.12798 20.065C5.6465 21.6484 6.65712 23.0331 8.01834 24.0254C9.37957 25.0177 11.0232 25.5677 12.7192 25.5986C11.0336 26.8964 9.10367 27.8558 7.03964 28.4219C4.97562 28.988 2.81802 29.1497 0.690201 28.8978C4.4046 31.2397 8.72852 32.483 13.1447 32.4789C28.0921 32.4789 36.2663 20.3393 36.2663 9.81117C36.2663 9.4683 36.2565 9.12162 36.241 8.78255C37.832 7.6552 39.2052 6.25866 40.296 4.65854L40.2941 4.65664Z" fill="#38CB89"/>
</svg>
