<svg width="32" height="32" viewBox="0 0 32 32" fill="none" xmlns="http://www.w3.org/2000/svg">
<path d="M24.7451 26.0652C23.4205 22.5224 20.0048 20.0001 16 20.0001C11.9952 20.0001 8.57947 22.5224 7.25489 26.0652M24.7451 26.0652C27.5562 23.6207 29.3333 20.0179 29.3333 16.0001C29.3333 8.63628 23.3638 2.66675 16 2.66675C8.63621 2.66675 2.66667 8.63628 2.66667 16.0001C2.66667 20.0179 4.4438 23.6207 7.25489 26.0652M24.7451 26.0652C22.4041 28.1009 19.346 29.3334 16 29.3334C12.654 29.3334 9.59592 28.1009 7.25489 26.0652M20 12.0001C20 14.2092 18.2091 16.0001 16 16.0001C13.7909 16.0001 12 14.2092 12 12.0001C12 9.79094 13.7909 8.00008 16 8.00008C18.2091 8.00008 20 9.79094 20 12.0001Z" stroke="#141718" stroke-width="2.25" stroke-linejoin="round"/>
</svg>
