<svg width="49" height="33" viewBox="0 0 49 33" fill="none" xmlns="http://www.w3.org/2000/svg">
<mask id="mask0_1_825" style="mask-type:alpha" maskUnits="userSpaceOnUse" x="0" y="0" width="49" height="33">
<rect x="0.5" y="0.30957" width="48" height="32" fill="#016FD0"/>
</mask>
<g mask="url(#mask0_1_825)">
<rect x="1" y="0.80957" width="47" height="31" rx="3.5" fill="white" stroke="#E8ECEF"/>
<path d="M10.4072 24.9516V17.7483H18.0351L18.8535 18.815L19.6989 17.7483H47.3862V24.4548C47.3862 24.4548 46.6622 24.9444 45.8247 24.9516H30.4937L29.571 23.8161V24.9516H26.5474V23.0133C26.5474 23.0133 26.1344 23.2839 25.2414 23.2839H24.2123V24.9516H19.6342L18.817 23.862L17.9873 24.9516H10.4072Z" fill="#016FD0"/>
<path d="M1.5 12.3193L3.22012 8.30957H6.19488L7.17106 10.5557V8.30957H10.869L11.4501 9.93297L12.0135 8.30957H28.6132V9.12571C28.6132 9.12571 29.4858 8.30957 30.92 8.30957L36.306 8.32839L37.2653 10.5451V8.30957H40.3599L41.2116 9.58288V8.30957H44.3346V15.5129H41.2116L40.3954 14.2355V15.5129H35.8487L35.3915 14.3774H34.1692L33.7194 15.5129H30.6361C29.402 15.5129 28.6132 14.7134 28.6132 14.7134V15.5129H23.9642L23.0415 14.3774V15.5129H5.75418L5.29727 14.3774H4.07887L3.62519 15.5129H1.5V12.3193Z" fill="#016FD0"/>
<path d="M3.82787 9.19739L1.50781 14.5916H3.01829L3.44637 13.5115H5.935L6.36086 14.5916H7.90461L5.58677 9.19739H3.82787ZM4.68625 10.4528L5.44482 12.3403H3.92547L4.68625 10.4528Z" fill="white"/>
<path d="M8.06397 14.5904V9.19611L10.2104 9.20408L11.4589 12.682L12.6775 9.19611H14.8068V14.5904H13.4582V10.6156L12.0287 14.5904H10.846L9.41254 10.6156V14.5904H8.06397Z" fill="white"/>
<path d="M15.731 14.5904V9.19611H20.1316V10.4027H17.0937V11.3254H20.0606V12.4611H17.0937V13.4193H20.1316V14.5904H15.731Z" fill="white"/>
<path d="M20.9112 9.19739V14.5917H22.2597V12.6753H22.8276L24.4445 14.5917H26.0925L24.3181 12.6043C25.0463 12.5429 25.7975 11.9178 25.7975 10.9474C25.7975 9.81228 24.9066 9.19739 23.9122 9.19739H20.9112ZM22.2597 10.404H23.8013C24.1711 10.404 24.4401 10.6933 24.4401 10.9718C24.4401 11.3302 24.0915 11.5397 23.8212 11.5397H22.2597V10.404Z" fill="white"/>
<path d="M27.7266 14.5904H26.3496V9.19611H27.7266V14.5904Z" fill="white"/>
<path d="M30.9913 14.5904H30.6941C29.256 14.5904 28.3829 13.4574 28.3829 11.9154C28.3829 10.3353 29.2462 9.19611 31.0623 9.19611H32.5528V10.4737H31.0078C30.2705 10.4737 29.7492 11.049 29.7492 11.9287C29.7492 12.9734 30.3453 13.4122 31.2042 13.4122H31.5591L30.9913 14.5904Z" fill="white"/>
<path d="M33.927 9.19739L31.607 14.5916H33.1175L33.5455 13.5115H36.0342L36.46 14.5916H38.0038L35.6859 9.19739H33.927ZM34.7854 10.4528L35.544 12.3403H34.0246L34.7854 10.4528Z" fill="white"/>
<path d="M38.1597 14.5904V9.19611H39.8743L42.0635 12.5853V9.19611H43.4121V14.5904H41.753L39.5083 11.1125V14.5904H38.1597Z" fill="white"/>
<path d="M11.3301 24.0298V18.6355H15.7307V19.8421H12.6929V20.7648H15.6597V21.9005H12.6929V22.8587H15.7307V24.0298H11.3301Z" fill="white"/>
<path d="M32.8921 24.0298V18.6355H37.2927V19.8421H34.2549V20.7648H37.2076V21.9005H34.2549V22.8587H37.2927V24.0298H32.8921Z" fill="white"/>
<path d="M15.9021 24.0297L18.0447 21.3659L15.8511 18.6355H17.5501L18.8565 20.3234L20.1674 18.6355H21.7999L19.6351 21.3326L21.7816 24.0297H20.0829L18.8144 22.3684L17.5767 24.0297H15.9021Z" fill="white"/>
<path d="M21.9405 18.6361V24.0304H23.3245V22.3269H24.7441C25.9452 22.3269 26.8557 21.6897 26.8557 20.4505C26.8557 19.4239 26.1416 18.6361 24.9193 18.6361H21.9405ZM23.3245 19.856H24.8195C25.2075 19.856 25.4849 20.0939 25.4849 20.4771C25.4849 20.8371 25.2089 21.0981 24.8151 21.0981H23.3245V19.856Z" fill="white"/>
<path d="M27.4419 18.6355V24.0298H28.7905V22.1134H29.3583L30.9753 24.0298H32.6233L30.8489 22.0424C31.5771 21.981 32.3283 21.3559 32.3283 20.3855C32.3283 19.2504 31.4373 18.6355 30.443 18.6355H27.4419ZM28.7905 19.8421H30.3321C30.7018 19.8421 30.9709 20.1314 30.9709 20.4099C30.9709 20.7683 30.6223 20.9778 30.352 20.9778H28.7905V19.8421Z" fill="white"/>
<path d="M37.9184 24.0298V22.8587H40.6173C41.0166 22.8587 41.1895 22.6429 41.1895 22.4062C41.1895 22.1794 41.0172 21.9502 40.6173 21.9502H39.3977C38.3375 21.9502 37.7471 21.3043 37.7471 20.3345C37.7471 19.4696 38.2878 18.6355 39.8631 18.6355H42.4893L41.9215 19.8492H39.6502C39.216 19.8492 39.0824 20.077 39.0824 20.2946C39.0824 20.5182 39.2476 20.7648 39.5792 20.7648H40.8568C42.0386 20.7648 42.5514 21.4352 42.5514 22.313C42.5514 23.2568 41.98 24.0298 40.7925 24.0298H37.9184Z" fill="white"/>
<path d="M42.8671 24.0298V22.8587H45.566C45.9654 22.8587 46.1383 22.6429 46.1383 22.4062C46.1383 22.1794 45.9659 21.9502 45.566 21.9502H44.3464C43.2863 21.9502 42.6959 21.3043 42.6959 20.3345C42.6959 19.4696 43.2365 18.6355 44.8119 18.6355H47.3844L46.8702 19.8492H44.599C44.1648 19.8492 44.0311 20.077 44.0311 20.2946C44.0311 20.5182 44.1963 20.7648 44.528 20.7648H45.8056C46.9874 20.7648 47.5002 21.4352 47.5002 22.313C47.5002 23.2568 46.9287 24.0298 45.7412 24.0298H42.8671Z" fill="white"/>
</g>
</svg>
