<svg width="49" height="33" viewBox="0 0 49 33" fill="none" xmlns="http://www.w3.org/2000/svg">
<rect x="1" y="0.80957" width="47" height="31" rx="3.5" fill="white" stroke="#E8ECEF"/>
<path fill-rule="evenodd" clip-rule="evenodd" d="M24.5 23.5974C22.8053 25.0596 20.607 25.9424 18.2049 25.9424C12.845 25.9424 8.5 21.5474 8.5 16.126C8.5 10.7045 12.845 6.30957 18.2049 6.30957C20.607 6.30957 22.8053 7.19231 24.5 8.65459C26.1946 7.19231 28.3929 6.30957 30.795 6.30957C36.1549 6.30957 40.4999 10.7045 40.4999 16.126C40.4999 21.5474 36.1549 25.9424 30.795 25.9424C28.3929 25.9424 26.1946 25.0596 24.5 23.5974Z" fill="#ED0006"/>
<path fill-rule="evenodd" clip-rule="evenodd" d="M24.4999 23.5974C26.5866 21.7969 27.9098 19.1177 27.9098 16.126C27.9098 13.1342 26.5866 10.4551 24.4999 8.65459C26.1946 7.19231 28.3929 6.30957 30.795 6.30957C36.1549 6.30957 40.4999 10.7045 40.4999 16.126C40.4999 21.5474 36.1549 25.9424 30.795 25.9424C28.3929 25.9424 26.1946 25.0596 24.4999 23.5974Z" fill="#F9A000"/>
<path fill-rule="evenodd" clip-rule="evenodd" d="M24.5 23.5974C26.5866 21.7969 27.9098 19.1177 27.9098 16.126C27.9098 13.1343 26.5866 10.4551 24.5 8.6546C22.4133 10.4551 21.0901 13.1343 21.0901 16.126C21.0901 19.1177 22.4133 21.7969 24.5 23.5974Z" fill="#FF5E00"/>
</svg>
